<?xml version="1.0" encoding="UTF-8" standalone="no"?>
<!-- Generator: Adobe Illustrator 24.3.0, SVG Export Plug-In . SVG Version: 6.00 Build 0)  -->

<svg
   version="1.1"
   id="Layer_1"
   x="0px"
   y="0px"
   viewBox="0 0 56.194512 52.152188"
   enable-background="new 0 0 120 120"
   xml:space="preserve"
   sodipodi:docname="reshot-icon-natural-power-mod.svg"
   width="56.194511"
   height="52.152187"
   inkscape:version="1.2.2 (732a01da63, 2022-12-09)"
   xmlns:inkscape="http://www.inkscape.org/namespaces/inkscape"
   xmlns:sodipodi="http://sodipodi.sourceforge.net/DTD/sodipodi-0.dtd"
   xmlns="http://www.w3.org/2000/svg"
   xmlns:svg="http://www.w3.org/2000/svg"><defs
   id="defs6947">
	
	
	
	
	

		
		
		
		
		
		
		
	</defs><sodipodi:namedview
   id="namedview6945"
   pagecolor="#505050"
   bordercolor="#eeeeee"
   borderopacity="1"
   inkscape:showpageshadow="0"
   inkscape:pageopacity="0"
   inkscape:pagecheckerboard="0"
   inkscape:deskcolor="#505050"
   showgrid="false"
   inkscape:zoom="8"
   inkscape:cx="-5.3125"
   inkscape:cy="41.375"
   inkscape:window-width="2560"
   inkscape:window-height="1369"
   inkscape:window-x="1912"
   inkscape:window-y="-8"
   inkscape:window-maximized="1"
   inkscape:current-layer="Layer_1" />

<g
   id="g15474"
   inkscape:label="largeLeaf"
   transform="translate(5.775639e-4,8.4716487e-4)"><path
     fill="#ffbb00"
     d="m 17.189,48.435439 v -47.701 c 0,0 -37.028,32.371 0,47.701 z"
     id="path6918" /><path
     fill="#7cbb00"
     d="m 17.189,0.734439 v 47.701 c 37.029,-15.33 0,-47.701 0,-47.701 z"
     id="path6920" /><path
     id="path15173"
     d="m 17.091797,0.00585938 c -0.06895,0.00946873 -0.135922,0.03079693 -0.201172,0.06054687 -0.066,0.02999994 -0.126689,0.06923447 -0.179687,0.11523437 C 15.934938,0.85963928 -2.26162,16.96728 0.234375,32.15625 1.3923726,39.201236 6.8589562,44.836024 16.460938,48.916016 v 2.505859 c 0,0.957687 1.464843,0.987437 1.464843,0 V 48.916016 C 27.528763,44.836024 32.991393,39.201236 34.150391,32.15625 36.648385,16.96828 18.452779,0.85963928 17.675781,0.18164062 17.513781,0.03989092 17.298656,-0.02254683 17.091797,0.00585938 Z M 16.455078,2.4199219 V 23.6875 l -6.074219,-6.076172 c -0.286998,-0.286 -0.7501096,-0.286 -1.037109,0 -0.2859994,0.287 -0.2859994,0.75011 0,1.03711 l 7.111328,7.113281 V 37.125 L 6.9609375,27.626953 c -0.2869994,-0.285 -0.75011,-0.285 -1.0371094,0 -0.2849994,0.287 -0.2849994,0.750111 0,1.037109 L 16.455078,39.197266 v 8.128906 C 7.6980958,43.48118 2.7296854,38.299908 1.6796875,31.919922 -0.3243085,19.742946 12.395086,6.3419141 16.455078,2.4199219 Z m 1.466797,0 C 21.982867,6.3419141 34.703215,19.742946 32.699219,31.919922 31.648221,38.299908 26.678857,43.48118 17.921875,47.326172 V 39.197266 L 28.455078,28.664062 c 0.286,-0.286998 0.286,-0.750109 0,-1.037109 -0.286,-0.285 -0.749156,-0.285 -1.035156,0 L 17.921875,37.125 V 25.761719 l 7.113281,-7.113281 c 0.286,-0.287 0.286,-0.75011 0,-1.03711 -0.285998,-0.286 -0.751109,-0.286 -1.037109,0 L 17.921875,23.6875 Z"
     sodipodi:nodetypes="sccccsscccscccccccccccccccccccccccccscc"
     style="fill:#1a171b;fill-opacity:1" /></g><g
   id="g15481"
   transform="translate(-7.0704899,-4.5953468)"
   inkscape:label="smallLeaf"><path
     fill="#00a1f1"
     d="m 52.517,42.763439 v 0 -6.84 c 0,-5.935 4.812,-10.748 10.748,-10.748 v 0 6.84 c 0,5.935 -4.813,10.748 -10.748,10.748 z"
     id="path6922" /><path
     fill="#f65314"
     d="m 52.515,50.579439 v 0 c -5.936,0 -10.748,-4.812 -10.748,-10.748 v -6.839 0 c 5.937,0 10.748,4.811 10.748,10.748 z"
     id="path6924" /><path
     id="path15178"
     d="m 59.205078,30.027344 c -0.341661,0.02105 -0.629406,0.284767 -0.675781,0.634765 -0.606,4.532988 -3.59235,7.928441 -5.277344,9.523438 v -8.320313 c 0,0 -1.185547,0.984375 -1.466797,2.453125 v 13.685547 c -1.685994,-1.593994 -4.673297,-4.989452 -5.279297,-9.523437 -0.054,-0.4 -0.421268,-0.687904 -0.822265,-0.628907 -0.401,0.053 -0.682906,0.421269 -0.628906,0.822266 0.825997,6.180982 5.493471,10.297066 6.730468,11.289063 v 5.373047 c 0,1.018754 1.466797,0.936235 1.466797,0.01562 v -13.20898 c 1.239997,-0.993997 5.904472,-5.107174 6.730469,-11.285156 0.055,-0.401 -0.228909,-0.770219 -0.628906,-0.824219 -0.0505,-0.0074 -0.09963,-0.0089 -0.148438,-0.0059 z"
     sodipodi:nodetypes="scccccccccsscccss"
     style="fill:#1a171b;fill-opacity:1;stroke:none" /></g></svg>
